<svg width="800" height="600" viewBox="0 0 800 600" fill="none" xmlns="http://www.w3.org/2000/svg">
  <!-- Background grid pattern -->
  <pattern id="grid" x="0" y="0" width="50" height="50" patternUnits="userSpaceOnUse">
    <path d="M 50 0 L 0 0 0 50" fill="none" stroke="#E67E22" stroke-width="0.5" opacity="0.1"/>
  </pattern>
  <rect width="800" height="600" fill="url(#grid)"/>

  <!-- Abstract shapes -->
  <circle cx="100" cy="100" r="80" fill="#2C3E50" opacity="0.05"/>
  <circle cx="700" cy="500" r="120" fill="#2C3E50" opacity="0.05"/>

  <!-- Truck silhouettes -->
  <!-- Truck 1 -->
  <g opacity="0.15">
    <path d="M600 250 L700 250 L700 300 L600 300 Z" fill="#2C3E50"/>
    <path d="M400 250 L600 250 L600 350 L400 350 Z" fill="#2C3E50"/>
    <circle cx="450" cy="370" r="30" fill="#2C3E50"/>
    <circle cx="650" cy="370" r="30" fill="#2C3E50"/>
  </g>

  <!-- Truck 2 -->
  <g opacity="0.1" transform="translate(-200, 100)">
    <path d="M600 250 L700 250 L700 300 L600 300 Z" fill="#E67E22"/>
    <path d="M400 250 L600 250 L600 350 L400 350 Z" fill="#E67E22"/>
    <circle cx="450" cy="370" r="30" fill="#E67E22"/>
    <circle cx="650" cy="370" r="30" fill="#E67E22"/>
  </g>

  <!-- Decorative lines -->
  <path d="M0 100 L800 500" stroke="#2C3E50" stroke-width="2" opacity="0.05"/>
  <path d="M0 500 L800 100" stroke="#E67E22" stroke-width="2" opacity="0.05"/>
</svg>